<svg xmlns="http://www.w3.org/2000/svg" width="62.905" height="60.438" viewBox="0 0 62.905 60.438">
    <defs>
        <style>
            .cls-1{fill:#0d3594}
        </style>
    </defs>
    <g id="Group_13823" transform="translate(-1138.625 -316.78)">
        <path id="Path_10437" d="M1200.913 373.631a2.069 2.069 0 0 0-1.446-.6l-.495-.005v-22.2a3.4 3.4 0 0 0-3.382-3.376h-10.225a3.391 3.391 0 0 0-3.379 3.38v22.186h-3.47v-27.3a3.391 3.391 0 0 0-3.377-3.379h-10.229a3.4 3.4 0 0 0-3.379 3.381v27.3h-3.468v-11.961a3.391 3.391 0 0 0-3.377-3.38h-10.23a3.388 3.388 0 0 0-3.376 3.38V373l-.472.026a2.1 2.1 0 0 0 .037 4.2h58.786a2.1 2.1 0 0 0 2.1-2.1 2.109 2.109 0 0 0-.618-1.495zm-47.055-.61h-8.583v-11.138h8.583zm20.454 0h-8.583v-26.476h8.583zm20.453 0h-8.581v-21.372h8.581z" class="cls-1"/>
        <path id="Path_10438" d="M1144.247 340.4a2.1 2.1 0 0 0 1.486 3.583h.013a2.09 2.09 0 0 0 1.474-.613l11.944-11.945 19.289 4.84a2.117 2.117 0 0 0 2-.552l11.76-11.76v5.147a2.1 2.1 0 1 0 4.2 0v-10.223a.282.282 0 0 1-.029-.14 2.048 2.048 0 0 0-.6-1.372 1.985 1.985 0 0 0-1.4-.574h-.077l-.052-.014h-10.17a2.1 2.1 0 0 0 0 4.2h5.165l-10.912 10.91-19.307-4.824a2.121 2.121 0 0 0-2 .555z" class="cls-1"/>
    </g>
</svg>
