<svg xmlns="http://www.w3.org/2000/svg" width="67.949" height="60.757" viewBox="0 0 67.949 60.757">
    <defs>
        <style>
            .cls-2{fill:#0d3594}
        </style>
    </defs>
    <g id="Group_13824" transform="translate(-1155.816 -252.382)">
        <path id="Path_10439" fill="#fff" d="M1199.167 267.663a1.379 1.379 0 0 1 .082-.415.842.842 0 0 1 .032-.089 1.362 1.362 0 0 1 .261-.393c.008-.007.01-.018.018-.026s.011-.006.016-.011a1.36 1.36 0 0 1 .43-.29h.007a1.365 1.365 0 0 1 .524-.105h6.206l-.874-.855a3.231 3.231 0 0 0-2.249-.925h-3.152a1.218 1.218 0 0 1-1.268-1.1 1.287 1.287 0 0 1-.054-.3c0-.008 0-.016.005-.025a1.341 1.341 0 0 1 .059-.28 1.4 1.4 0 0 1 .057-.238 1.371 1.371 0 0 1 .266-.387c.03-.032.065-.059.1-.088a1.379 1.379 0 0 1 .318-.207c.036-.017.07-.037.108-.051a1.353 1.353 0 0 1 .495-.089h10.805a1.354 1.354 0 0 1 .515.117h.012a1.38 1.38 0 0 1 .421.3l.014.01c.004.004.008.015.014.021a1.415 1.415 0 0 1 .265.423c.007.018.009.037.016.054a1.43 1.43 0 0 1 .075.436c0 .019.01.037.009.056a1.384 1.384 0 0 1-1.435 1.344h-2.533l.323.707a6.3 6.3 0 0 1 .277.724l.108.348h1.869a1.365 1.365 0 0 1 .45.09.547.547 0 0 1 .053.017 1.4 1.4 0 0 1 .425.285l.012.011a1.376 1.376 0 0 1 .4.973c0 .018-.009.034-.01.052a1.378 1.378 0 0 1-.078.4c-.016.044-.032.086-.051.128a1.388 1.388 0 0 1-.221.331c-.017.019-.024.044-.042.062s-.041.024-.059.04a1.389 1.389 0 0 1-.334.225c-.04.019-.08.035-.121.05a1.362 1.362 0 0 1-.417.083c-.015 0-.03.01-.046.01h-1.823l-.107.355a6.02 6.02 0 0 1-4.352 4.093l-.9.214 3.724 3.527 1.349 1.277a1.4 1.4 0 0 1 .333 1.541l-.036.18-.265.268a1.375 1.375 0 0 1-.98.409 1.359 1.359 0 0 1-.945-.38l-7.657-7.251a1.389 1.389 0 0 1-.435-.963v-.073a1.559 1.559 0 0 1 .037-.293l.007-.018.116-.3a1.414 1.414 0 0 1 1.2-.748h3.075a3.242 3.242 0 0 0 2.316-1l.806-.845h-6.2a1.384 1.384 0 0 1-1.385-1.382c.008.003.019-.014.019-.034z"/>
        <path id="Path_10440" d="M1222.581 292.053v-.343a6.135 6.135 0 0 0-8.416-1.386l-8.7 6.432a9.815 9.815 0 0 1-1.5.877l-.823.388.114-.9a6.15 6.15 0 0 0-4.123-6.582l-17.2-5.682a17.663 17.663 0 0 0-16.757 3.051l-.138.112h-7.077a2.147 2.147 0 0 0-2.142 2.142v19.793a2.147 2.147 0 0 0 2.142 2.142h7.917a2.147 2.147 0 0 0 2.142-2.143v-1.27l15.317 3.465a38.569 38.569 0 0 0 8.46.993h.374a36.52 36.52 0 0 0 21.074-6.953l7.887-5.843a6.1 6.1 0 0 0 1.684-8.29zM1163.74 307.8h-3.64v-15.515h3.642zm55.591-12.107a1.838 1.838 0 0 1-.15.5c-.013.027-.03.051-.044.078a1.8 1.8 0 0 1-.343.465l-8.036 5.956a32.32 32.32 0 0 1-18.634 6.159h-.128a34.134 34.134 0 0 1-7.7-.879l-16.274-3.7v-13.186l.2-.149a13.672 13.672 0 0 1 11.6-2.218c.252.066.506.115.755.2l17.165 5.677a1.994 1.994 0 0 1 .221.112c.029.016.061.027.088.044a1.791 1.791 0 0 1 .482.434l.01.011a1.821 1.821 0 0 1 .151.236l.03.054c.009.018.035.056.048.086.021.048.031.1.048.147.01.029.02.058.028.087a1.7 1.7 0 0 1 .049.231c.006.034.009.068.012.1a1.756 1.756 0 0 1 .007.229c0 .038-.005.076-.009.114a1.849 1.849 0 0 1-.035.22c-.009.042-.023.084-.036.126s-.021.093-.039.139c-.01.025-.026.047-.037.072s-.037.077-.057.115a1.746 1.746 0 0 1-.113.186c-.024.035-.05.068-.076.1a1.732 1.732 0 0 1-.147.162c-.03.029-.06.056-.092.083a1.679 1.679 0 0 1-.18.134l-.1.065a2.061 2.061 0 0 1-.2.1c-.038.015-.076.033-.115.047a1.869 1.869 0 0 1-.209.051c-.042.009-.083.021-.125.027a1.906 1.906 0 0 1-.227.01c-.039 0-.077.006-.116 0a1.806 1.806 0 0 1-.288-.043c-.018 0-.036 0-.055-.009l-12.193-4.021c-.06-.016-.121-.019-.182-.03a2.144 2.144 0 0 0-.715-.007h-.006a2.1 2.1 0 0 0-.317.08c-.012 0-.026.005-.039.01a2.038 2.038 0 0 0-.338.153h-.006l-.017.012a2.294 2.294 0 0 0-.3.212c-.028.024-.055.051-.082.077a2.091 2.091 0 0 0-.19.2c-.035.044-.068.09-.1.136a2.2 2.2 0 0 0-.123.194c-.03.055-.056.112-.081.17a1.976 1.976 0 0 0-.083.215c-.008.027-.022.051-.03.078s-.012.078-.021.117c-.015.071-.029.141-.037.212a1.828 1.828 0 0 0-.012.222v.17a2.3 2.3 0 0 0 .039.276c.008.036.013.072.022.107a2.157 2.157 0 0 0 .109.315l.023.057a2.27 2.27 0 0 0 .179.309c.01.013.017.028.026.041a2.047 2.047 0 0 0 .226.258c.017.017.031.037.049.054a2.108 2.108 0 0 0 .236.181c.034.024.064.052.1.074a2.139 2.139 0 0 0 .22.108c.053.025.1.055.158.076l12.182 4.017a14.184 14.184 0 0 0 12.59-1.9l8.575-6.335c.014-.009.029-.013.042-.022a2.031 2.031 0 0 1 .265-.138 1.818 1.818 0 0 1 .2-.065c.039-.011.077-.025.116-.034a1.748 1.748 0 0 1 .227-.033c.033 0 .066-.007.1-.008a1.73 1.73 0 0 1 .216.006c.042 0 .084.008.125.014s.073 0 .109.012.053.019.08.026c.05.013.1.03.146.047s.112.039.166.064a1.506 1.506 0 0 1 .136.076c.052.03.1.057.153.092s.078.066.117.1a1.733 1.733 0 0 1 .136.12c.014.015.025.033.038.048a1.7 1.7 0 0 1 .174.22l.006.013a1.767 1.767 0 0 1 .216.514c.009.034.021.066.027.1a1.793 1.793 0 0 1 .027.517c-.003.043-.007.08-.013.12z" class="cls-2"/>
        <path id="Path_10441" d="M1205.726 288.33a17.974 17.974 0 1 0-17.973-17.976 18 18 0 0 0 17.973 17.976zm0-31.669a13.683 13.683 0 1 1-12.178 19.9q-.227-.443-.423-.9a13.619 13.619 0 0 1-1.082-5.316 13.7 13.7 0 0 1 13.683-13.684z" class="cls-2"/>
        <path id="Path_10442" d="M1200.541 269.1h6.2l-.806.845a3.242 3.242 0 0 1-2.316 1h-3.075a1.414 1.414 0 0 0-1.2.748l-.116.3-.007.018a1.559 1.559 0 0 0-.037.293v.073a1.389 1.389 0 0 0 .435.963l7.657 7.251a1.359 1.359 0 0 0 .945.38 1.375 1.375 0 0 0 .98-.409l.265-.268.036-.18a1.4 1.4 0 0 0-.333-1.541l-1.349-1.277-3.724-3.527.9-.214a6.02 6.02 0 0 0 4.352-4.093l.107-.355h1.823c.016 0 .031-.009.046-.01a1.362 1.362 0 0 0 .417-.083c.041-.015.081-.031.121-.05a1.389 1.389 0 0 0 .334-.225c.018-.016.042-.022.059-.04s.025-.043.042-.062a1.388 1.388 0 0 0 .221-.331c.019-.042.035-.084.051-.128a1.378 1.378 0 0 0 .078-.4c0-.018.01-.034.01-.052a1.376 1.376 0 0 0-.4-.973l-.012-.011a1.4 1.4 0 0 0-.425-.285.547.547 0 0 0-.053-.017 1.365 1.365 0 0 0-.45-.09h-1.869l-.108-.348a6.3 6.3 0 0 0-.277-.724l-.323-.707h2.533a1.384 1.384 0 0 0 1.435-1.344c0-.019-.009-.037-.009-.056a1.43 1.43 0 0 0-.075-.436c-.007-.017-.009-.036-.016-.054a1.415 1.415 0 0 0-.265-.423c-.006-.006-.008-.015-.014-.021s-.01-.006-.014-.01a1.38 1.38 0 0 0-.421-.3h-.012a1.354 1.354 0 0 0-.515-.117h-10.805a1.353 1.353 0 0 0-.495.089c-.038.014-.072.034-.108.051a1.379 1.379 0 0 0-.318.207c-.033.029-.068.056-.1.088a1.371 1.371 0 0 0-.266.387 1.4 1.4 0 0 0-.057.238 1.341 1.341 0 0 0-.059.28c0 .009-.005.017-.005.025a1.287 1.287 0 0 0 .054.3 1.218 1.218 0 0 0 1.268 1.1h3.152a3.231 3.231 0 0 1 2.249.925l.874.855h-6.206a1.365 1.365 0 0 0-.524.105h-.007a1.36 1.36 0 0 0-.43.29c-.005.005-.012.007-.016.011s-.01.019-.018.026a1.362 1.362 0 0 0-.261.393.842.842 0 0 0-.032.089 1.379 1.379 0 0 0-.082.415c0 .02-.011.038-.011.058a1.384 1.384 0 0 0 1.385 1.382z" class="cls-2"/>
    </g>
</svg>
