<svg xmlns="http://www.w3.org/2000/svg" width="63.961" height="63.959" viewBox="0 0 63.961 63.959">
    <defs>
        <style>
            .cls-1{fill:#0d3594}
        </style>
    </defs>
    <g id="Group_13820" transform="translate(-949.195 -415.79)">
        <path id="Path_10430" d="M958.651 443.724a3.838 3.838 0 0 0 .883.111H979.1a3.694 3.694 0 0 0 2.633-1.078 3.653 3.653 0 0 0 1.092-2.616 3.579 3.579 0 0 0-.109-.917l-1.46-5.847a8.472 8.472 0 0 0-4.861-5.711l-.415-.178.212-.4a7.732 7.732 0 1 0-13.72 0l.206.4-.412.178a8.462 8.462 0 0 0-4.861 5.711l-1.463 5.85a3.709 3.709 0 0 0 2.705 4.5zm9.338-23.392a3.421 3.421 0 0 1 1.343-.273 3.466 3.466 0 1 1-1.343.273zM961.55 434.4a4.14 4.14 0 0 1 4.028-3.151h7.494a4.145 4.145 0 0 1 4.036 3.151l1.287 5.165h-18.134z" class="cls-1" transform="translate(11.858)"/>
        <path id="Path_10431" d="M1007.169 420.519a5.95 5.95 0 0 0-5.942 5.945v8.736l-.4.022a5.8 5.8 0 0 0-3.758 1.68l-4.855 4.856-2.231-.134a6.194 6.194 0 0 0-5.129 1.805l-3.014 3.009c-.12.123-.24.248-.356.379l-.309.34-.312-.343c-.114-.128-.234-.254-.354-.379l-3.009-3.009a6.169 6.169 0 0 0-5.076-1.811l-2.287.139-4.864-4.847a5.8 5.8 0 0 0-3.752-1.685l-.393-.022v-8.75a5.946 5.946 0 0 0-11.89.025l-.044 20.467a8.36 8.36 0 0 0 2.451 5.931l11.792 11.792v3.268a3.387 3.387 0 0 0 3.374 3.374h13.124a3.358 3.358 0 0 0 1.1-.184l.136-.047.136.047a3.383 3.383 0 0 0 1.1.184h13.132a3.382 3.382 0 0 0 3.368-3.374v-3.268l11.793-11.795a8.344 8.344 0 0 0 2.451-5.934l-.045-20.475a5.949 5.949 0 0 0-5.937-5.942zm-28.136 46.528h-11.321v-3.257a2.118 2.118 0 0 0-.638-1.5l-12.4-12.438a4.151 4.151 0 0 1-1.12-2.1 4.317 4.317 0 0 1-.083-.8l.05-20.475a1.642 1.642 0 0 1 .111-.6 1.672 1.672 0 0 1 1.343-1.056 1.69 1.69 0 0 1 1.234.334 1.749 1.749 0 0 1 .646 1.279v10.75l-.094.117a5.744 5.744 0 0 0 .362 7.764l6.925 6.925a2.139 2.139 0 0 0 1.5.671 2.179 2.179 0 0 0 1.527-.591 2.118 2.118 0 0 0 .666-1.493 2.2 2.2 0 0 0-.666-1.6l-6.953-6.953a1.5 1.5 0 0 1-.083-2.1 1.454 1.454 0 0 1 1.019-.471 1.621 1.621 0 0 1 1.187.468l4.878 4.878a4.091 4.091 0 0 0 3.368 1.22l2.362-.136a2 2 0 0 1 1.619.582l3.011 3.011a5.285 5.285 0 0 1 1.549 3.744zm28.643-17.213l-.131.131-.231.259-12.034 12.037a2.137 2.137 0 0 0-.643 1.521v3.245h-11.325v-13.834a5.279 5.279 0 0 1 1.554-3.744l3.011-3.011a2.147 2.147 0 0 1 1.788-.574l2.137.125a4.1 4.1 0 0 0 3.418-1.209l4.892-4.892a1.459 1.459 0 0 1 1.022-.471 1.4 1.4 0 0 1 1.078.387 1.443 1.443 0 0 1 .471 1.017 1.65 1.65 0 0 1-.468 1.189l-6.939 6.939a2.135 2.135 0 0 0 1.415 3.688 2.291 2.291 0 0 0 1.6-.663l6.934-6.931a5.744 5.744 0 0 0 .362-7.764l-.1-.114v-10.707a1.671 1.671 0 0 1 3.343-.006l.047 20.472a4.12 4.12 0 0 1-1.201 2.909z" class="cls-1" transform="translate(0 8.446)"/>
    </g>
</svg>
