<svg xmlns="http://www.w3.org/2000/svg" width="53.61" height="63.537" viewBox="0 0 53.61 63.537">
    <path fill="#0d3594" d="M92.079 10.288L67.756.19a2.482 2.482 0 0 0-1.9 0L41.53 10.288A2.482 2.482 0 0 0 40 12.581v12.276a41.564 41.564 0 0 0 25.867 38.5 2.482 2.482 0 0 0 1.876 0 41.564 41.564 0 0 0 25.867-38.5V12.581a2.482 2.482 0 0 0-1.531-2.293zm-3.433 14.569A36.608 36.608 0 0 1 66.8 58.36a36.61 36.61 0 0 1-21.841-33.5V14.238L66.8 5.169l21.841 9.068zm-24.584 8.366l10.667-10.668a2.482 2.482 0 1 1 3.51 3.51L65.816 38.488a2.482 2.482 0 0 1-3.51 0l-6.936-6.937a2.482 2.482 0 0 1 3.51-3.51z" transform="translate(-40)"/>
</svg>
